<svg width="20" height="16" viewBox="0 0 20 16" fill="none" xmlns="http://www.w3.org/2000/svg">
<path fill-rule="evenodd" clip-rule="evenodd" d="M5.52447 0.0442871C3.65517 0.35764 2.32895 2.0826 2.43217 4.06634C2.48683 5.11665 2.88592 6.00178 3.62683 6.71602C5.4034 8.42868 8.16119 7.89782 9.30602 5.62279C10.1109 4.02323 9.66759 1.92889 8.28691 0.808656C7.49189 0.1636 6.48116 -0.116059 5.52447 0.0442871ZM13.9639 0.579048C13.1196 0.691295 12.3088 1.21009 11.8128 1.95552C10.727 3.58737 11.2394 5.85717 12.9035 6.78672C13.6886 7.22532 14.6491 7.29244 15.459 6.96526C15.9708 6.75853 16.5028 6.34539 16.8251 5.90437C17.3872 5.13512 17.6069 4.16238 17.4297 3.22802C17.1063 1.52321 15.5884 0.363106 13.9639 0.579048ZM13.7343 7.83786C13.0693 7.89693 12.3551 8.09916 11.7688 8.39444C11.4758 8.54202 10.8802 8.93389 10.6668 9.11949L10.5383 9.23119L10.8045 9.4462C11.1139 9.69623 11.6498 10.2754 11.9345 10.6675C12.622 11.6143 13.0428 12.6406 13.2153 13.7909C13.2475 14.0056 13.274 14.2384 13.2741 14.3082L13.2744 14.4351H16.6372H20L19.9783 13.5078C19.9487 12.2461 19.8506 11.7849 19.4239 10.9018C18.6401 9.27937 17.1413 8.17416 15.3241 7.87869C14.9683 7.82087 14.1594 7.80006 13.7343 7.83786ZM5.40005 8.9707C3.38598 9.13605 1.58921 10.3336 0.669925 12.1232C0.19728 13.0434 0 13.9077 0 15.0582V15.5283H6.07106H12.1421L12.1421 15.1671C12.1419 13.2505 11.5383 11.7642 10.2704 10.5586C8.98182 9.33341 7.37269 8.80876 5.40005 8.9707Z" fill="#ECECEC"/>
</svg>
