<svg width="17" height="20" viewBox="0 0 17 20" fill="none" xmlns="http://www.w3.org/2000/svg">
<path fill-rule="evenodd" clip-rule="evenodd" d="M0.780088 7.40657C0 8.26474 0 9.59068 0 12.2426C0 15.7784 0 17.5463 1.04012 18.6905C1.12556 18.7845 1.21544 18.8744 1.30944 18.9599C2.45368 20 4.2216 20 7.75743 20H8.53317C12.069 20 13.8369 20 14.9812 18.9599C15.0752 18.8744 15.165 18.7845 15.2505 18.6905C16.2906 17.5463 16.2906 15.7784 16.2906 12.2426C16.2906 9.59068 16.2906 8.26474 15.5105 7.40657C15.4464 7.33607 15.379 7.26866 15.3085 7.20457C14.4503 6.42448 13.1244 6.42448 10.4725 6.42448H5.81807C3.1662 6.42448 1.84026 6.42448 0.982083 7.20457C0.911582 7.26866 0.844174 7.33607 0.780088 7.40657ZM8.14511 13.4751C8.54005 13.4751 8.86021 13.155 8.86021 12.76C8.86021 12.3651 8.54005 12.0449 8.14511 12.0449C7.75017 12.0449 7.43001 12.3651 7.43001 12.76C7.43001 13.155 7.75017 13.4751 8.14511 13.4751ZM10.8602 12.76C10.8602 13.9065 10.1496 14.887 9.14486 15.2851V17.2851H7.14486V15.2849C6.14036 14.8867 5.43001 13.9063 5.43001 12.76C5.43001 11.2605 6.6456 10.0449 8.14511 10.0449C9.64462 10.0449 10.8602 11.2605 10.8602 12.76Z" fill="#ECECEC"/>
<path d="M12.218 7.32937V7.32937C12.4934 5.67657 11.7752 4.01568 10.3823 3.08434L10.044 2.85818C8.21172 1.63306 5.78651 1.78406 4.12034 3.22701L3.3214 3.91891" stroke="#ECECEC" stroke-width="2" stroke-linecap="round"/>
</svg>
