<svg width="40" height="40" viewBox="0 0 40 40" fill="none" xmlns="http://www.w3.org/2000/svg">
<path d="M10 20C10 19.0714 10 18.6071 10.0342 18.2156C10.4149 13.8646 13.8646 10.4149 18.2156 10.0342C18.6071 10 19.0714 10 20 10V10C20.9286 10 21.3929 10 21.7844 10.0342C26.1354 10.4149 29.5851 13.8646 29.9658 18.2156C30 18.6071 30 19.0714 30 20V26.3636C30 27.8983 30 28.6657 29.6011 29.1986C29.4868 29.3512 29.3512 29.4868 29.1986 29.6011C28.6657 30 27.8983 30 26.3636 30H20C19.0714 30 18.6071 30 18.2156 29.9658C13.8646 29.5851 10.4149 26.1354 10.0342 21.7844C10 21.3929 10 20.9286 10 20V20Z" stroke="#FDFFFF" stroke-width="2"/>
<path d="M16.25 20L23.75 20" stroke="#FDFFFF" stroke-width="2" stroke-linecap="round" stroke-linejoin="round"/>
<path d="M20 16.25L20 23.75" stroke="#FDFFFF" stroke-width="2" stroke-linecap="round" stroke-linejoin="round"/>
</svg>
