<svg width="40" height="40" viewBox="5 0 40 40" fill="none" xmlns="http://www.w3.org/2000/svg">
<g filter="url(#filter0_d_206_75)">
<path fill-rule="evenodd" clip-rule="evenodd" d="M20.5245 12.0443C18.6552 12.3576 17.3289 14.0826 17.4322 16.0663C17.4868 17.1167 17.8859 18.0018 18.6268 18.716C20.4034 20.4287 23.1612 19.8978 24.306 17.6228C25.1109 16.0232 24.6676 13.9289 23.2869 12.8087C22.4919 12.1636 21.4812 11.8839 20.5245 12.0443ZM28.9639 12.579C28.1196 12.6913 27.3088 13.2101 26.8128 13.9555C25.727 15.5874 26.2394 17.8572 27.9035 18.7867C28.6886 19.2253 29.6491 19.2924 30.459 18.9653C30.9708 18.7585 31.5028 18.3454 31.8251 17.9044C32.3872 17.1351 32.6069 16.1624 32.4297 15.228C32.1063 13.5232 30.5884 12.3631 28.9639 12.579ZM28.7343 19.8379C28.0693 19.8969 27.3551 20.0992 26.7688 20.3944C26.4758 20.542 25.8802 20.9339 25.6668 21.1195L25.5383 21.2312L25.8045 21.4462C26.1139 21.6962 26.6498 22.2754 26.9345 22.6675C27.622 23.6143 28.0428 24.6406 28.2153 25.7909C28.2475 26.0056 28.274 26.2384 28.2741 26.3082L28.2744 26.4351H31.6372H35L34.9783 25.5078C34.9487 24.2461 34.8506 23.7849 34.4239 22.9018C33.6401 21.2794 32.1413 20.1742 30.3241 19.8787C29.9683 19.8209 29.1594 19.8001 28.7343 19.8379ZM20.4 20.9707C18.386 21.136 16.5892 22.3336 15.6699 24.1232C15.1973 25.0434 15 25.9077 15 27.0582V27.5283H21.0711H27.1421L27.1421 27.1671C27.1419 25.2505 26.5383 23.7642 25.2704 22.5586C23.9818 21.3334 22.3727 20.8088 20.4 20.9707Z" fill="#FDFFFF"/>
</g>
<defs>
<filter id="filter0_d_206_75" x="-10" y="-10" width="70" height="70" filterUnits="userSpaceOnUse" color-interpolation-filters="sRGB">
<feFlood flood-opacity="0" result="BackgroundImageFix"/>
<feColorMatrix in="SourceAlpha" type="matrix" values="0 0 0 0 0 0 0 0 0 0 0 0 0 0 0 0 0 0 127 0" result="hardAlpha"/>
<feOffset dy="5"/>
<feGaussianBlur stdDeviation="7.5"/>
<feComposite in2="hardAlpha" operator="out"/>
<feColorMatrix type="matrix" values="0 0 0 0 0.537255 0 0 0 0 0.521569 0 0 0 0 0.458824 0 0 0 0.15 0"/>
<feBlend mode="normal" in2="BackgroundImageFix" result="effect1_dropShadow_206_75"/>
<feBlend mode="normal" in="SourceGraphic" in2="effect1_dropShadow_206_75" result="shape"/>
</filter>
</defs>
</svg>
