<svg width="40" height="40" viewBox="10 5 40 40" fill="none" xmlns="http://www.w3.org/2000/svg">
<g filter="url(#filter0_d_93_141)">
<path d="M20.8333 24.8862C20.8333 23.3021 20.8333 22.5101 21.1535 21.8139C21.4737 21.1177 22.0751 20.6023 23.2778 19.5714L24.4445 18.5714C26.6183 16.7081 27.7053 15.7764 29 15.7764C30.2947 15.7764 31.3817 16.7081 33.5555 18.5714L34.7222 19.5714C35.9249 20.6023 36.5263 21.1177 36.8465 21.8139C37.1667 22.5101 37.1667 23.3022 37.1667 24.8862V29.8333C37.1667 32.0332 37.1667 33.1332 36.4832 33.8166C35.7998 34.5 34.6999 34.5 32.5 34.5H25.5C23.3001 34.5 22.2002 34.5 21.5167 33.8166C20.8333 33.1332 20.8333 32.0332 20.8333 29.8333V24.8862Z" fill="#FDFFFF"/>
<path d="M31.9167 34.5V28.5C31.9167 27.9477 31.4689 27.5 30.9167 27.5H27.0833C26.531 27.5 26.0833 27.9477 26.0833 28.5V34.5" stroke="#FFCD1D" stroke-width="2" stroke-linecap="round" stroke-linejoin="round"/>
</g>
<defs>
<filter id="filter0_d_93_141" x="-6" y="-5" width="70" height="70" filterUnits="userSpaceOnUse" color-interpolation-filters="sRGB">
<feFlood flood-opacity="0" result="BackgroundImageFix"/>
<feColorMatrix in="SourceAlpha" type="matrix" values="0 0 0 0 0 0 0 0 0 0 0 0 0 0 0 0 0 0 127 0" result="hardAlpha"/>
<feOffset dy="5"/>
<feGaussianBlur stdDeviation="7.5"/>
<feComposite in2="hardAlpha" operator="out"/>
<feColorMatrix type="matrix" values="0 0 0 0 0.537255 0 0 0 0 0.521569 0 0 0 0 0.458824 0 0 0 0.15 0"/>
<feBlend mode="normal" in2="BackgroundImageFix" result="effect1_dropShadow_93_141"/>
<feBlend mode="normal" in="SourceGraphic" in2="effect1_dropShadow_93_141" result="shape"/>
</filter>
</defs>
</svg>
