<svg width="40" height="40" viewBox="6 0 40 40" fill="none" xmlns="http://www.w3.org/2000/svg">
<g filter="url(#filter0_d_206_82)">
<path d="M19.4507 23.9082L26.4033 30.4395C26.6428 30.6644 26.7625 30.7769 26.9037 30.8046C26.9673 30.8171 27.0327 30.8171 27.0963 30.8046C27.2375 30.7769 27.3572 30.6644 27.5967 30.4395L34.5493 23.9082C36.5055 22.0706 36.743 19.0466 35.0978 16.9261L34.7885 16.5273C32.8203 13.9906 28.8696 14.416 27.4867 17.3137C27.2913 17.723 26.7087 17.723 26.5133 17.3137C25.1304 14.416 21.1797 13.9906 19.2115 16.5273L18.9022 16.9261C17.2569 19.0466 17.4945 22.0706 19.4507 23.9082Z" fill="#FDFFFF" stroke="#FDFFFF" stroke-width="2"/>
</g>
<defs>
<filter id="filter0_d_206_82" x="-8" y="-8" width="70" height="70" filterUnits="userSpaceOnUse" color-interpolation-filters="sRGB">
<feFlood flood-opacity="0" result="BackgroundImageFix"/>
<feColorMatrix in="SourceAlpha" type="matrix" values="0 0 0 0 0 0 0 0 0 0 0 0 0 0 0 0 0 0 127 0" result="hardAlpha"/>
<feOffset dy="5"/>
<feGaussianBlur stdDeviation="7.5"/>
<feComposite in2="hardAlpha" operator="out"/>
<feColorMatrix type="matrix" values="0 0 0 0 0.537255 0 0 0 0 0.521569 0 0 0 0 0.458824 0 0 0 0.15 0"/>
<feBlend mode="normal" in2="BackgroundImageFix" result="effect1_dropShadow_206_82"/>
<feBlend mode="normal" in="SourceGraphic" in2="effect1_dropShadow_206_82" result="shape"/>
</filter>
</defs>
</svg>
